<?xml version="1.0" standalone="no"?>
<!DOCTYPE svg PUBLIC "-//W3C//DTD SVG 20010904//EN"
 "http://www.w3.org/TR/2001/REC-SVG-20010904/DTD/svg10.dtd">
<svg version="1.0" xmlns="http://www.w3.org/2000/svg"
 width="612.000000pt" height="612.000000pt" viewBox="0 0 612.000000 612.000000"
 preserveAspectRatio="xMidYMid meet">
<metadata>
Created by potrace 1.14, written by Peter Selinger 2001-2017
</metadata>
<g transform="translate(0.000000,612.000000) scale(0.100000,-0.100000)"
fill="#000000" stroke="none">
<path d="M2859 6105 c-3 -2 -47 -7 -99 -10 -52 -4 -97 -8 -100 -10 -3 -2 -28
-6 -56 -10 -136 -16 -370 -74 -539 -132 -438 -152 -825 -394 -1156 -723 -104
-103 -255 -277 -308 -355 -15 -22 -48 -69 -73 -105 -188 -273 -342 -621 -434
-985 -13 -52 -44 -211 -49 -255 -3 -30 -8 -62 -10 -70 -19 -74 -27 -521 -12
-673 31 -308 94 -568 207 -853 270 -679 803 -1260 1456 -1587 208 -104 481
-204 659 -243 11 -2 31 -6 45 -9 14 -3 45 -10 70 -15 25 -5 54 -11 66 -14 12
-2 45 -7 75 -11 30 -4 56 -8 59 -10 29 -17 525 -26 680 -12 230 21 499 79 710
152 207 73 467 194 586 275 25 16 48 30 51 30 6 0 152 100 195 134 14 12 41
32 59 46 169 127 411 373 555 565 168 222 328 513 413 751 24 65 47 128 52
139 27 62 98 364 115 485 2 19 6 49 9 65 13 89 20 211 20 390 0 179 -10 378
-19 394 -2 3 -7 31 -10 61 -5 47 -15 98 -40 220 -111 531 -414 1080 -816 1480
-202 202 -356 322 -612 478 -65 40 -327 173 -364 185 -10 3 -44 16 -74 27 -62
24 -187 69 -210 76 -89 24 -248 65 -273 69 -18 3 -66 12 -107 20 -41 8 -100
17 -130 21 -30 3 -71 8 -90 11 -49 5 -496 13 -501 8z"/>
</g>
</svg>
