<?xml version="1.0" standalone="no"?>
<!DOCTYPE svg PUBLIC "-//W3C//DTD SVG 20010904//EN"
 "http://www.w3.org/TR/2001/REC-SVG-20010904/DTD/svg10.dtd">
<svg version="1.0" xmlns="http://www.w3.org/2000/svg"
 width="384.000000pt" height="384.000000pt" viewBox="0 0 384.000000 384.000000"
 preserveAspectRatio="xMidYMid meet">
<metadata>
Created by potrace 1.14, written by Peter Selinger 2001-2017
</metadata>
<g transform="translate(0.000000,384.000000) scale(0.100000,-0.100000)"
fill="#000000" stroke="none">
<path d="M1716 3829 c-651 -69 -1227 -473 -1516 -1064 -126 -257 -184 -483
-197 -765 -33 -735 366 -1430 1019 -1774 189 -100 352 -156 573 -197 157 -30
465 -32 620 -6 641 111 1153 491 1430 1062 89 185 134 327 172 540 26 150 23
461 -5 618 -75 407 -251 748 -536 1033 -411 411 -984 614 -1560 553z m-248
-694 c103 -21 223 -81 299 -149 33 -31 64 -56 67 -56 3 0 6 50 6 110 l0 110
413 0 c381 0 420 -2 493 -20 254 -65 461 -271 521 -518 21 -91 21 -259 -1
-342 -24 -92 -87 -214 -150 -289 l-53 -64 43 -59 c23 -32 57 -88 74 -124 61
-130 62 -140 70 -614 5 -283 4 -439 -3 -448 -7 -9 -59 -12 -216 -10 l-206 3
-5 405 c-6 439 -7 446 -65 530 -35 50 -84 88 -146 111 -40 15 -77 19 -194 19
l-145 0 -1 -32 c-1 -18 -5 -258 -8 -533 l-6 -500 -210 0 -210 0 -3 597 -2 597
-78 -78 c-60 -60 -97 -87 -162 -119 -126 -62 -179 -72 -392 -79 l-188 -6 -2
-456 -3 -456 -206 -3 c-158 -2 -208 1 -215 10 -5 8 -8 529 -6 1246 l4 1232
404 0 c323 0 420 -3 482 -15z"/>
<path d="M1123 2723 l-113 -4 0 -349 0 -350 153 0 c83 0 169 5 191 11 95 26
188 162 204 299 18 146 -15 259 -96 330 -66 59 -127 70 -339 63z"/>
<path d="M2270 2440 l0 -280 178 0 c174 0 178 1 237 28 116 55 170 146 164
274 -4 63 -9 81 -37 125 -35 55 -88 97 -149 119 -26 9 -92 13 -215 14 l-178 0
0 -280z"/>
</g>
</svg>
